<?xml version="1.0" encoding="UTF-8" standalone="no"?>
<!-- Created with Inkscape (http://www.inkscape.org/) -->

<svg
   width="20.396727mm"
   height="20.396727mm"
   viewBox="0 0 20.396727 20.396728"
   version="1.1"
   id="svg5"
   xml:space="preserve"
   xmlns="http://www.w3.org/2000/svg"
   xmlns:svg="http://www.w3.org/2000/svg"><defs
     id="defs2" /><g
     id="layer1"
     transform="translate(-0.03999931,30.283808)"><g
       id="g4567"><path
         style="fill:#426ddb;fill-opacity:1;stroke-width:0.425999;stroke-dasharray:none"
         d="m 0.21846629,-12.878354 c 0,0.337843 0,0.450457 0.56307,0.450457 H 16.547521 v -12.162331 c 0,-0.675685 -0.112614,-0.788299 -0.788299,-0.788299 H 9.7906713 c -0.450457,0 -2.027055,-2.364898 -2.364898,-2.364898 H 0.78153629 c -0.56307,0 -0.56307,0 -0.56307,0.450457 z"
         id="path502-9" /><path
         style="fill:#567dde;fill-opacity:1;stroke-width:0.425999;stroke-dasharray:none"
         d="m 0.78153629,-12.427914 c 0.79539901,0.07363 3.03817801,-8.921937 3.03817801,-8.921937 0.11502,-0.312408 0.565476,-0.988093 1.46639,-0.988093 H 19.588104 c 0,0 0.99058,-0.114375 0.563071,1.35137 0,0 0,0 -2.364898,8.10822 -0.07051,0.241741 -0.112614,0.450457 -1.013527,0.450457 H 0.78153629 Z"
         id="path504-1" /></g><rect
       style="fill:none;stroke:none;stroke-width:0.103275;stroke-linecap:round;stroke-linejoin:round;stroke-dasharray:none;stroke-opacity:1"
       id="rect595-27"
       width="20.396727"
       height="20.396725"
       x="0.039999306"
       y="-30.283808" /></g></svg>
