<?xml version="1.0" encoding="UTF-8" standalone="no"?>
<!-- Created with Inkscape (http://www.inkscape.org/) -->

<svg
   width="20.396725mm"
   height="20.396727mm"
   viewBox="0 0 20.396725 20.396728"
   version="1.1"
   id="svg5"
   xml:space="preserve"
   xmlns="http://www.w3.org/2000/svg"
   xmlns:svg="http://www.w3.org/2000/svg"><defs
     id="defs2"><filter
       style="color-interpolation-filters:sRGB"
       id="filter5531-1-8"
       x="-0.072672412"
       y="-0.077481613"
       width="1.1453449"
       height="1.1549633"><feGaussianBlur
         stdDeviation="0.49444661"
         id="feGaussianBlur5533-2-6" /></filter><filter
       style="color-interpolation-filters:sRGB"
       id="filter5489-9-8"
       x="-0.056317091"
       y="-0.11065474"
       width="1.1126342"
       height="1.2213095"><feGaussianBlur
         stdDeviation="0.45703013"
         id="feGaussianBlur5491-3-8" /></filter><clipPath
       clipPathUnits="userSpaceOnUse"
       id="clipPath8097"><rect
         style="fill:none;stroke:#010101;stroke-width:0.110746;stroke-linecap:round;stroke-linejoin:round;stroke-dasharray:none;stroke-opacity:1"
         id="rect8099"
         width="21.872246"
         height="21.872242"
         x="19.407679"
         y="-0.72276533" /></clipPath></defs><g
     id="layer1"
     transform="translate(-57.781918,52.336332)"><rect
       style="fill:none;stroke:none;stroke-width:0.103275;stroke-linecap:round;stroke-linejoin:round;stroke-dasharray:none;stroke-opacity:1"
       id="rect595-8-4"
       width="20.396727"
       height="20.396725"
       x="57.781918"
       y="-52.33633" /><g
       id="g5569-5-3"
       transform="matrix(0.93253922,0,0,0.93253922,39.683496,-51.662321)"
       clip-path="url(#clipPath8097)"><path
         style="opacity:0.5;fill:#000000;fill-opacity:1;stroke-width:0.425999;stroke-dasharray:none;filter:url(#filter5531-1-8)"
         d="m 20.318672,17.348743 c 0,0.337843 0,0.450457 0.56307,0.450457 H 36.647727 V 5.6368686 c 0,-0.675685 -0.112614,-0.7882991 -0.788299,-0.7882991 h -5.968551 c -0.450457,0 -2.027055,-2.3648977 -2.364898,-2.3648977 h -6.644237 c -0.56307,0 -0.56307,0 -0.56307,0.4504566 z"
         id="path5517-0-1" /><path
         style="fill:#d8a323;fill-opacity:1;stroke:#292929;stroke-width:0.425999;stroke-dasharray:none;stroke-opacity:1"
         d="m 20.718468,17.548729 c 0,0.337843 0,0.450457 0.56307,0.450457 H 37.047523 V 5.8368548 c 0,-0.675685 -0.112614,-0.7882991 -0.788299,-0.7882991 h -5.968551 c -0.450457,0 -2.027055,-2.3648977 -2.364898,-2.3648977 h -6.644237 c -0.56307,0 -0.56307,0 -0.56307,0.4504566 z"
         id="path502-3-4" /><path
         style="opacity:0.5;fill:#000000;fill-opacity:1;stroke-width:0.425999;stroke-dasharray:none;filter:url(#filter5489-9-8)"
         d="m 20.981983,17.699098 c 0.795399,0.07363 3.038178,-8.921937 3.038178,-8.921937 0.11502,-0.3124087 0.565476,-0.9880937 1.46639,-0.9880937 h 14.302 c 0,0 0.99058,-0.1143745 0.563071,1.3513701 0,0 0,0 -2.364898,8.1082206 -0.07051,0.241741 -0.112614,0.450457 -1.013527,0.450457 H 20.981983 Z"
         id="path5487-6-9"
         transform="matrix(1,0,0,1.0302731,0,-0.23573614)" /><path
         style="fill:#f4bd36;fill-opacity:1;stroke:#292929;stroke-width:0.425999;stroke-dasharray:none;stroke-opacity:1"
         d="m 21.281538,17.999169 c 0.795399,0.07363 3.038178,-8.9219368 3.038178,-8.9219368 0.11502,-0.3124087 0.565476,-0.9880937 1.46639,-0.9880937 h 14.302 c 0,0 0.99058,-0.1143745 0.563071,1.3513701 0,0 0,0 -2.364898,8.1082204 -0.07051,0.241741 -0.112614,0.450457 -1.013527,0.450457 H 21.281538 Z"
         id="path504-10-2" /></g></g></svg>
